<?xml version="1.0" encoding="UTF-8" standalone="no"?>
<!-- Generator: Adobe Illustrator 16.0.0, SVG Export Plug-In . SVG Version: 6.00 Build 0)  -->

<svg
   xmlns:dc="http://purl.org/dc/elements/1.1/"
   xmlns:cc="http://creativecommons.org/ns#"
   xmlns:rdf="http://www.w3.org/1999/02/22-rdf-syntax-ns#"
   xmlns:svg="http://www.w3.org/2000/svg"
   xmlns="http://www.w3.org/2000/svg"
   xmlns:sodipodi="http://sodipodi.sourceforge.net/DTD/sodipodi-0.dtd"
   xmlns:inkscape="http://www.inkscape.org/namespaces/inkscape"
   version="1.1"
   id="Layer_1"
   x="0px"
   y="0px"
   width="524.1438"
   height="524.14099"
   viewBox="0 0 524.1438 524.14099"
   enable-background="new 0 0 612 792"
   xml:space="preserve"
   inkscape:version="0.48.5 r10040"
   sodipodi:docname="FoalFriendlyIcon.svg"><metadata
     id="metadata23"><rdf:RDF><cc:Work
         rdf:about=""><dc:format>image/svg+xml</dc:format><dc:type
           rdf:resource="http://purl.org/dc/dcmitype/StillImage" /></cc:Work></rdf:RDF></metadata><defs
     id="defs21" /><sodipodi:namedview
     pagecolor="#ffffff"
     bordercolor="#666666"
     borderopacity="1"
     objecttolerance="10"
     gridtolerance="10"
     guidetolerance="10"
     inkscape:pageopacity="0"
     inkscape:pageshadow="2"
     inkscape:window-width="1364"
     inkscape:window-height="747"
     id="namedview19"
     showgrid="false"
     fit-margin-top="2.15"
     fit-margin-left="0"
     fit-margin-right="0"
     fit-margin-bottom="2.15"
     inkscape:zoom="1.1919192"
     inkscape:cx="340.63282"
     inkscape:cy="210.88215"
     inkscape:window-x="0"
     inkscape:window-y="19"
     inkscape:window-maximized="1"
     inkscape:current-layer="Layer_1" /><path
     style="fill:#ffffff"
     inkscape:connector-curvature="0"
     id="path7"
     d="m 283.06645,2.15 c -13.778,0 -26.854,3.414 -38.861,10.146 -15.267,8.558 -26.828,19.92 -34.362,33.771 -2.39,4.394 -4.376,9.045 -5.954,13.938 -3.203,-2.355 -6.571,-4.488 -10.098,-6.394 -12.428,-6.716 -26.511,-10.266 -40.728,-10.266 -22.09,0 -43.311,8.555 -58.220996,23.471 -14.334,14.339 -22.69,30.864 -24.835,49.117 -1.955,16.64 0.156,31.849 6.285,45.503 -18.709,1.731 -36.176,9.626 -49.847,22.664 -13.866,13.225 -23.242,31.244 -25.72300002,49.439 C -2.506546,257.23 5.213454,282.426 21.375454,300.94 c 10.337,11.842 23.447,20.275 38.223,24.81 -13.568,18.262 -18.95,39.146 -15.996,62.123 2.62,20.39 12.202,37.87 28.481,51.955 15.551,13.452 33.758996,20.271 54.121996,20.271 4.736,0 9.64,-0.379 14.575,-1.128 8.753,-1.33 16.985,-3.963 24.648,-7.873 3.418,19.75 13.455,37.708 28.263,50.563 15.099,13.11 34.529,20.33 54.711,20.33 5.18,0 10.451,-0.471 15.668,-1.397 17.467,-3.104 33.966,-12.394 46.457,-26.157 6.46,-7.119 11.651,-15.229 15.378,-23.886 0.524,0.341 1.057,0.677 1.597,1.009 12.671,7.762 27.632,11.864 43.268,11.864 21.433,0 42.107,-7.894 56.724,-21.655 15.82,-14.898 25.234,-33.584 27.224,-54.039 1.402,-14.417 -0.982,-28.697 -6.941,-42.072 1.849,-0.154 3.628,-0.377 5.36,-0.668 22.98,-3.869 42.877,-16.379 56.021,-35.227 12.857,-18.436 17.669,-40.646 13.549,-62.542 -5.822,-30.918 -24.22,-52.923 -53.428,-64.107 13.049,-14.891 19.914,-33.397 20.064,-54.503 0.167,-23.376 -8.364,-43.63 -25.356,-60.201 -15.979,-15.586 -36.903,-24.17 -58.916,-24.17 -13.384,0 -26.479,3.226 -38.334,9.391 -1.866,-12.111 -6.243,-23.475 -13.066,-33.716 -12.448,-18.686 -32.011,-31.837 -53.669,-36.083 -5.691,-1.117 -11.388,-1.682 -16.936,-1.682 z"
     sodipodi:nodetypes="ccscsscccccccccscccsccccsccccsccccsccccc" /><path
     style="fill:#c17698;fill-rule:evenodd;color:#000000;fill-opacity:1;stroke-width:1;stroke-linecap:butt;stroke-linejoin:miter;stroke-miterlimit:4;stroke-opacity:1;stroke-dasharray:none;stroke-dashoffset:0;marker:none;visibility:visible;display:inline;overflow:visible;enable-background:accumulate"
     d="M 283.0625 17.15625 C 272.0615 17.15625 261.43825 19.819 251.53125 25.375 C 225.76725 39.817 213.63375 62.57525 214.34375 93.28125 C 199.41875 69.25925 175.8555 58.34375 153.0625 58.34375 C 135.1985 58.34375 117.82975 65.04025 105.46875 77.40625 C 94.267754 88.61025 86.75225 101.9785 84.90625 117.6875 C 82.08725 141.6915 89.096754 162.59 108.59375 179.875 C 99.987754 177.25 91.81725 176.0625 84.15625 176.0625 C 45.34725 176.0625 19.54475 206.5895 15.59375 235.5625 C 10.59775 272.2125 37.734 314.625 85.875 314.625 C 88.987 314.625 92.18375 314.4305 95.46875 314.0625 C 94.00675 315.1715 93.211 315.969 92.25 316.5 C 84.783 320.637 78.453 326.011 73.125 332.75 C 60.701 348.468 55.95675 366.42775 58.46875 385.96875 C 60.65375 402.97075 68.86825 417.219 81.90625 428.5 C 95.03625 439.857 109.97575 445.09375 126.21875 445.09375 C 130.24875 445.09375 134.34725 444.79125 138.53125 444.15625 C 153.61925 441.86325 166.579 434.806 177.25 423.75 C 177.911 423.065 178.5795 421.84375 179.5625 421.84375 C 179.8435 421.84375 180.162 421.9505 180.5 422.1875 C 181.504 422.8925 180.8065 424.36225 180.5625 425.53125 C 178.9785 433.17625 178.90575 440.93625 180.21875 448.53125 C 186.01875 482.04925 213.85825 507 248.40625 507 C 252.65925 507 257.0095 506.5995 261.4375 505.8125 C 290.6745 500.6175 314.8185 474.4665 317.4375 443.6875 C 323.4515 449.5395 328.80875 454.77625 335.34375 458.78125 C 345.92575 465.26325 358.35425 468.4375 370.78125 468.4375 C 387.83825 468.4375 404.90275 462.44075 417.21875 450.84375 C 444.00375 425.62075 447.611 388.11625 426.25 358.15625 C 425.218 356.70825 423.22025 355.3885 424.53125 352.8125 C 425.57325 350.7645 427.0825 350.34375 428.8125 350.34375 C 429.2205 350.34375 429.6355 350.342 430.0625 350.375 C 433.7195 350.661 437.4005 350.9375 441.0625 350.9375 C 444.2745 350.9375 447.49825 350.7195 450.65625 350.1875 C 489.75725 343.6055 514.95975 307.15 507.96875 270 C 502.50875 241.005 484.594 222.828 456.5 214.625 C 451.862 213.27 446.91675 212.9985 442.09375 212.3125 C 440.70875 212.1155 440.02325 211.3345 439.53125 210.1875 C 438.82925 208.5475 440.29425 208.162 441.15625 207.5 C 442.08925 206.781 443.12175 206.20425 444.09375 205.53125 C 463.98175 191.72325 474.17375 172.449 474.34375 148.5 C 474.48075 129.387 467.525 112.83325 453.5 99.15625 C 440.068 86.05325 422.6405 79.25 405.0625 79.25 C 392.1085 79.25 379.09425 82.92925 367.53125 90.53125 C 361.61325 94.42125 356.4105 99.18 350.9375 104.75 C 360.7535 56.777 328.909 24.7925 297.125 18.5625 C 292.389 17.6345 287.6855 17.15625 283.0625 17.15625 z "
     transform="translate(0,-1.1914032e-6)"
     id="path5" /><path
     clip-rule="evenodd"
     d="m 425.81845,264.677 c 0.926,87.003 -70.852,158.423 -158.582,157.635 -87.144,-0.786 -157.228,-69.625 -157.036,-159.033 0.188,-87.416 72.354,-157.852 160.217,-156.888 84.942,0.932 157.127,72.109 155.401,158.286 z"
     id="path9"
     inkscape:connector-curvature="0"
     style="fill:#fff578;fill-rule:evenodd"
     sodipodi:nodetypes="ccssc" /><path
     style="font-size:medium;font-style:normal;font-variant:normal;font-weight:normal;font-stretch:normal;text-indent:0;text-align:start;text-decoration:none;line-height:normal;letter-spacing:normal;word-spacing:normal;text-transform:none;direction:ltr;block-progression:tb;writing-mode:lr-tb;text-anchor:start;baseline-shift:baseline;color:#000000;fill:#be6194;fill-opacity:1;fill-rule:evenodd;stroke:none;stroke-width:9;marker:none;visibility:visible;display:inline;overflow:visible;enable-background:accumulate;font-family:Sans;-inkscape-font-specification:Sans"
     d="M 210.75,260.03125 204.90625,279 c -7.59524,24.65407 2.7083,51.63105 23.96875,66.4375 12.13033,8.44795 26.42027,14.30891 41.25,9.875 9.77954,-2.92396 18.2728,-7.43912 25.04028,-14.16607 9.82546,-9.76662 15.35586,-23.53822 10.42847,-38.39643 -7.91007,16.62339 -21.23566,28.31903 -35.45361,32.44246 -9.83769,2.85308 -20.10261,2.08093 -29.29639,-3.19246 -10.25298,-5.88093 -16.46005,-15.4085 -21.1875,-26.6875 -3.15124,-7.51841 -4.53867,-15.74137 -6,-25.625 z"
     id="path11"
     inkscape:connector-curvature="0"
     sodipodi:nodetypes="csssscssssc" /><path
     style="font-size:medium;font-style:normal;font-variant:normal;font-weight:normal;font-stretch:normal;text-indent:0;text-align:start;text-decoration:none;line-height:normal;letter-spacing:normal;word-spacing:normal;text-transform:none;direction:ltr;block-progression:tb;writing-mode:lr-tb;text-anchor:start;baseline-shift:baseline;color:#000000;fill:#be6194;fill-opacity:1;fill-rule:evenodd;stroke:none;stroke-width:9;marker:none;visibility:visible;display:inline;overflow:visible;enable-background:accumulate;font-family:Sans;-inkscape-font-specification:Sans"
     d="m 312.75012,215.91783 c -10.79795,9.63775 -16.98447,22.37995 -15.09387,33.01967 l 0.0625,0.0312 c 7.41442,-7.14504 18.94301,-18.42012 34.96875,-25.5 6.7287,-2.97262 12.82857,-3.36793 18.21875,-1.8125 5.39018,1.55543 10.2786,5.16777 14.40625,11.25 2.89349,4.26365 4.85104,9.16678 6.6875,14.5 2.51631,7.30759 3.13601,15.63388 5.125,24.84375 l 4.3125,19.96875 4.5,-19.9375 c 1.89375,-8.39034 1.88448,-16.147 1.4375,-23.59375 -0.77741,-12.95168 -2.93748,-26.96919 -13.375,-36.375 -10.1845,-9.17779 -22.37471,-12.70118 -32.94713,-11.46724 -10.42867,1.21716 -19.30667,7.04313 -28.30275,15.07262 z"
     id="path13"
     inkscape:connector-curvature="0"
     sodipodi:nodetypes="sccssssscsssss" /><path
     style="font-size:medium;font-style:normal;font-variant:normal;font-weight:normal;font-stretch:normal;text-indent:0;text-align:start;text-decoration:none;line-height:normal;letter-spacing:normal;word-spacing:normal;text-transform:none;direction:ltr;block-progression:tb;writing-mode:lr-tb;text-anchor:start;baseline-shift:baseline;color:#000000;fill:#be6194;fill-opacity:1;fill-rule:evenodd;stroke:none;stroke-width:9;marker:none;visibility:visible;display:inline;overflow:visible;enable-background:accumulate;font-family:Sans;-inkscape-font-specification:Sans"
     d="m 226.125,167.3125 c -14.55655,-0.38742 -22.00052,4.57644 -32.32698,12.38501 -12.65497,9.56932 -23.73436,22.2362 -21.02021,39.68343 6.60784,-9.95338 17.29907,-17.14454 26.19094,-23.66219 9.82524,-7.20179 18.97077,-9.07109 26.65625,-7.03125 7.68548,2.03984 14.54721,8.17248 19.4375,19.28125 4.0986,9.31035 5.84365,19.55676 7.53125,30.1875 l 4.59375,28.9375 L 261.5,238.125 c 2.59952,-17.46202 2.57509,-35.47332 -7.15625,-52 -5.27945,-8.96606 -12.82329,-15.11545 -21.53125,-17.625 -2.17699,-0.62739 -4.40665,-1.1268 -6.6875,-1.1875 z"
     id="path15"
     inkscape:connector-curvature="0"
     sodipodi:nodetypes="sscsssscssss" /><path
     clip-rule="evenodd"
     d="m 300.84245,245.746 c -0.068,0.141 -0.142,0.281 -0.213,0.422 0.089,-0.125 0.175,-0.25 0.262,-0.373 0,-10e-4 -0.049,-0.049 -0.049,-0.049 z"
     id="path17"
     inkscape:connector-curvature="0"
     style="fill:#be6194;fill-rule:evenodd" /><path
     clip-rule="evenodd"
     d="m -212.39434,206.48583 c 0.926,87.003 -70.852,158.423 -158.582,157.635 -87.144,-0.786 -157.228,-69.625 -157.036,-159.033 0.188,-87.41601 72.354,-157.852006 160.217,-156.888006 84.942,0.932 157.127,72.108996 155.401,158.286006 z"
     id="path9-4"
     inkscape:connector-curvature="0"
     style="fill:#fff578;fill-rule:evenodd"
     sodipodi:nodetypes="ccssc" /></svg>