<?xml version="1.0" encoding="UTF-8" standalone="no"?>
<!-- Created with Inkscape (http://www.inkscape.org/) -->

<svg
   xmlns:dc="http://purl.org/dc/elements/1.1/"
   xmlns:cc="http://creativecommons.org/ns#"
   xmlns:rdf="http://www.w3.org/1999/02/22-rdf-syntax-ns#"
   xmlns:svg="http://www.w3.org/2000/svg"
   xmlns="http://www.w3.org/2000/svg"
   version="1.1"
   width="245.62782"
   height="200"
   id="svg3028">
  <defs
     id="defs3030" />
  <metadata
     id="metadata3033">
    <rdf:RDF>
      <cc:Work
         rdf:about="">
        <dc:format>image/svg+xml</dc:format>
        <dc:type
           rdf:resource="http://purl.org/dc/dcmitype/StillImage" />
        <dc:title></dc:title>
      </cc:Work>
    </rdf:RDF>
  </metadata>
  <g
     transform="translate(-368.61466,-303.79075)"
     id="layer1">
    <path
       d="m 368.61466,338.38566 c 92.18981,0.71661 167.56458,-13.85317 236.1502,-34.59491 4.87044,35.94842 6.55905,60.76039 8.47918,86.38273 -7.38143,-6.73856 -16.8975,-1.20409 -16.37873,15.72978 0.28382,9.26456 6.47473,22.47827 17.37718,13.38233 -0.3917,32.5578 -1.21897,60.32432 -2.37221,84.50516 -75.08739,-18.6642 -154.30242,-24.94544 -238.00942,-17.75079 2.26827,-20.41466 2.52189,-41.33298 1.75009,-62.50765 3.75259,3.18282 15.40552,2.90758 16.08924,-10.16957 0.58739,-11.23475 -8.04563,-17.83062 -16.88066,-12.30931 -0.7518,-17.81745 -1.04087,-34.55519 -6.20487,-62.66777 z"
       id="path11741"
       style="fill:#caa94d;fill-opacity:1;stroke:none" />
    <path
       d="m 582.44507,345.32891 c 4.12639,41.96345 5.4308,83.95647 3.94689,126.09534 -60.79223,-8.14874 -121.90266,-9.53984 -183.14465,-7.41443 1.14021,-33.38025 0.0989,-66.59834 -3.12488,-99.84294 5.55522,4.75563 13.94561,10.05575 20.97153,7.17986 11.69578,-4.78739 17.22351,-20.74206 31.52205,-22.8338 9.61428,-1.4064 20.47178,0.45894 26.81434,8.50467 0,0 1.18809,-4.85502 11.46738,-5.96622 10.27817,-1.11109 11.71113,4.50781 11.71113,4.50781 5.97643,-8.37311 15.19626,-13.54693 25.00102,-15.93338 16.18247,-3.93877 23.99626,20.02373 38.28683,17.99351 7.29594,-1.03652 11.83046,-6.5965 16.54836,-12.29042 z"
       id="path3674"
       style="fill:#ebcc66" />
    <path
       d="m 532.83874,363.96545 c -27.12269,2.88063 -54.29001,5.10612 -81.52561,6.78849 -1.74158,-0.032 -3.32322,1.62659 -3.20852,3.36468 0.11469,1.73809 1.90058,3.17449 3.62284,2.91388 27.31503,-1.68727 54.55252,-3.89667 81.78058,-6.78849 1.65911,-0.15578 3.02102,-1.82114 2.84438,-3.47816 -0.17664,-1.65702 -1.85901,-2.99787 -3.51367,-2.8004 z"
       id="path3678"
       style="font-size:medium;font-style:normal;font-variant:normal;font-weight:normal;font-stretch:normal;text-indent:0;text-align:start;text-decoration:none;line-height:normal;letter-spacing:normal;word-spacing:normal;text-transform:none;direction:ltr;block-progression:tb;writing-mode:lr-tb;text-anchor:start;baseline-shift:baseline;color:#000000;fill:#927643;fill-opacity:1;stroke:none;stroke-width:6.19099998;marker:none;visibility:visible;display:inline;overflow:visible;enable-background:accumulate;font-family:Sans;-inkscape-font-specification:Sans" />
    <path
       d="m 558.94096,387.39052 c -43.40798,2.944 -86.83577,5.16475 -130.31987,6.91598 -1.65207,0.0667 -3.09448,1.63063 -3.02773,3.28269 0.0667,1.65206 1.63063,3.09448 3.28269,3.02773 43.5289,-1.75303 87.03253,-3.96718 130.5111,-6.91597 1.65207,-0.11681 3.04894,-1.72624 2.93212,-3.37831 -0.11681,-1.65207 -1.72625,-3.04893 -3.37831,-2.93212 z"
       id="path3680"
       style="font-size:medium;font-style:normal;font-variant:normal;font-weight:normal;font-stretch:normal;text-indent:0;text-align:start;text-decoration:none;line-height:normal;letter-spacing:normal;word-spacing:normal;text-transform:none;direction:ltr;block-progression:tb;writing-mode:lr-tb;text-anchor:start;baseline-shift:baseline;color:#000000;fill:#927643;fill-opacity:1;stroke:none;stroke-width:6.19099998;marker:none;visibility:visible;display:inline;overflow:visible;enable-background:accumulate;font-family:Sans;-inkscape-font-specification:Sans" />
    <path
       d="m 565.82506,413.77958 c -47.35901,0.44496 -94.69532,1.58175 -142.01647,3.12334 -1.67447,0.0167 -3.17511,1.579 -3.12438,3.25279 0.0507,1.67379 1.6432,3.14237 3.3156,3.05764 47.28579,-1.54045 94.56024,-2.67898 141.85712,-3.12334 1.69037,0.0525 3.26394,-1.48054 3.25541,-3.17171 -0.008,-1.69117 -1.59747,-3.20832 -3.28723,-3.13872 z"
       id="path3682"
       style="font-size:medium;font-style:normal;font-variant:normal;font-weight:normal;font-stretch:normal;text-indent:0;text-align:start;text-decoration:none;line-height:normal;letter-spacing:normal;word-spacing:normal;text-transform:none;direction:ltr;block-progression:tb;writing-mode:lr-tb;text-anchor:start;baseline-shift:baseline;color:#000000;fill:#927643;fill-opacity:1;stroke:none;stroke-width:6.19099998;marker:none;visibility:visible;display:inline;overflow:visible;enable-background:accumulate;font-family:Sans;-inkscape-font-specification:Sans" />
    <path
       d="m 426.48574,439.21251 c -1.68087,-0.002 -3.20217,1.55668 -3.15973,3.23702 0.0424,1.68035 1.64044,3.16007 3.31908,3.07341 45.60085,-1.14381 91.16069,-0.98929 136.69405,1.21109 1.65212,0.0835 3.23131,-1.34371 3.31476,-2.99585 0.0834,-1.65213 -1.34392,-3.23123 -2.99605,-3.31457 -47.0781,-2.21831 -93.38721,-2.2866 -137.17211,-1.2111 z"
       id="path3684"
       style="font-size:medium;font-style:normal;font-variant:normal;font-weight:normal;font-stretch:normal;text-indent:0;text-align:start;text-decoration:none;line-height:normal;letter-spacing:normal;word-spacing:normal;text-transform:none;direction:ltr;block-progression:tb;writing-mode:lr-tb;text-anchor:start;baseline-shift:baseline;color:#000000;fill:#927643;fill-opacity:1;stroke:none;stroke-width:6.19099998;marker:none;visibility:visible;display:inline;overflow:visible;enable-background:accumulate;font-family:Sans;-inkscape-font-specification:Sans" />
  </g>
</svg>
