<?xml version="1.0" encoding="UTF-8" standalone="no"?>
<svg width="153px" height="227px" viewBox="0 0 153 227" version="1.1" xmlns="http://www.w3.org/2000/svg" xmlns:xlink="http://www.w3.org/1999/xlink">
    <!-- Generator: Sketch 41.2 (35397) - http://www.bohemiancoding.com/sketch -->
    <title>EFNW_standard_2_</title>
    <desc>Created with Sketch.</desc>
    <defs></defs>
    <g id="Page-1" stroke="none" stroke-width="1" fill="none" fill-rule="evenodd">
        <g id="logo-green" transform="translate(-14.000000, 0.000000)" fill="#FFFFFF">
            <path d="M47.608,43.854 L60.255,24.607 L72.901,43.854 L65.674,42.479 L71.094,50.728 L79.333,37.668 L72.395,39.042 L85.405,18.42 L78.467,19.795 L90.608,0.548 L102.752,19.795 L95.814,18.42 L108.824,39.042 L101.886,37.668 L110.124,50.728 L115.544,42.479 L108.316,43.854 L120.962,24.607 L133.608,43.854 L126.38,42.479 L139.93,63.101 L132.704,61.726 L139.822,72.561 L127.761,83.21 C118.521,70.844 105.293,63.1 90.602,63.1 C75.913,63.1 62.686,70.844 53.444,83.21 L41.39,72.562 L48.509,61.727 L41.282,63.102 L54.833,42.48 L47.608,43.854 Z M105.786,140.089 L80.491,135.277 L60.256,96.783 L100.729,116.03 L105.786,140.089 Z M90.608,226.701 C48.698,226.701 14.724,187.924 14.724,140.089 C14.724,126.321 17.543,113.307 22.552,101.747 L16.198,97.719 C19.549,90.94 23.594,84.674 28.217,79.026 L47.309,93.294 C42.683,102.735 40.021,113.811 40.021,125.654 C40.021,160.201 62.67,188.207 90.611,188.207 C118.552,188.207 141.201,160.202 141.201,125.654 C141.201,113.81 138.539,102.735 133.914,93.294 L153.006,79.026 C157.626,84.674 161.673,90.94 165.024,97.719 L158.67,101.747 C163.679,113.307 166.498,126.322 166.498,140.089 C166.493,187.923 132.52,226.701 90.608,226.701 Z M28.637,121.299 C30.575,121.299 32.149,119.803 32.149,117.958 C32.149,116.114 30.578,114.617 28.637,114.617 C26.696,114.617 25.122,116.114 25.122,117.958 C25.122,119.804 26.696,121.299 28.637,121.299 Z M28.376,142.176 C26.047,142.176 24.159,143.97 24.159,146.186 C24.159,148.401 26.047,150.196 28.376,150.196 C30.704,150.196 32.593,148.401 32.593,146.186 C32.593,143.971 30.704,142.176 28.376,142.176 Z M37.858,169.34 C35.141,169.34 32.939,171.435 32.939,174.019 C32.939,176.602 35.141,178.697 37.858,178.697 C40.573,178.697 42.776,176.601 42.776,174.019 C42.776,171.435 40.573,169.34 37.858,169.34 Z M152.582,121.299 C154.52,121.299 156.096,119.803 156.096,117.958 C156.096,116.114 154.522,114.617 152.582,114.617 C150.642,114.617 149.068,116.114 149.068,117.958 C149.068,119.804 150.643,121.299 152.582,121.299 Z M143.359,169.34 C140.644,169.34 138.441,171.435 138.441,174.019 C138.441,176.602 140.644,178.697 143.359,178.697 C146.075,178.697 148.277,176.601 148.277,174.019 C148.277,171.435 146.075,169.34 143.359,169.34 Z M152.843,142.176 C150.516,142.176 148.626,143.97 148.626,146.186 C148.626,148.401 150.516,150.196 152.843,150.196 C155.17,150.196 157.059,148.401 157.059,146.186 C157.059,143.971 155.17,142.176 152.843,142.176 Z M83.864,128.862 L88.924,124.05 L93.983,119.238 L67.004,103.199 L83.864,128.862 Z" id="EFNW_standard_2_"></path>
        </g>
    </g>
</svg>