<?xml version="1.0" encoding="UTF-8" standalone="no"?>
<svg width="196px" height="196px" viewBox="0 0 196 196" version="1.1" xmlns="http://www.w3.org/2000/svg" xmlns:xlink="http://www.w3.org/1999/xlink">
    <!-- Generator: Sketch 41.2 (35397) - http://www.bohemiancoding.com/sketch -->
    <title>Shape</title>
    <desc>Created with Sketch.</desc>
    <defs></defs>
    <g id="Page-1" stroke="none" stroke-width="1" fill="none" fill-rule="evenodd">
        <g id="logo-green" transform="translate(-234.000000, -265.000000)" fill="#FFFFFF">
            <path d="M429.607,363.089 C429.607,416.934 385.957,460.585 332.111,460.585 C278.267,460.585 234.617,416.936 234.617,363.089 C234.617,309.243 278.267,265.593 332.111,265.593 C385.957,265.594 429.607,309.244 429.607,363.089 Z M306.051,306.771 L295.916,322.193 L301.322,321.164 L295.998,329.267 L305.016,337.231 C311.928,327.983 321.817,322.192 332.805,322.192 C343.791,322.192 353.68,327.983 360.594,337.231 L369.614,329.267 L364.29,321.164 L369.692,322.193 L359.559,306.771 L364.961,307.798 L355.504,293.404 L346.045,307.798 L351.449,306.771 L347.396,312.939 L341.234,303.172 L346.422,304.2 L336.693,288.779 L341.881,289.807 L332.802,275.413 L323.72,289.807 L328.908,288.779 L319.182,304.2 L324.37,303.172 L318.208,312.939 L314.154,306.771 L319.558,307.798 L310.1,293.404 L300.643,307.798 L306.051,306.771 Z M340.369,361.775 L310.103,347.381 L325.236,376.169 L344.154,379.768 L340.369,361.775 Z M389.553,379.768 C389.553,369.473 387.446,359.741 383.699,351.094 L388.449,348.082 C385.947,343.012 382.92,338.327 379.463,334.103 L365.186,344.772 C368.645,351.833 370.637,360.116 370.637,368.973 C370.637,394.809 353.699,415.751 332.805,415.751 C311.909,415.751 294.971,394.809 294.971,368.973 C294.971,360.118 296.961,351.832 300.422,344.772 L286.143,334.103 C282.688,338.327 279.664,343.012 277.159,348.082 L281.911,351.094 C278.167,359.74 276.057,369.473 276.057,379.768 C276.057,415.54 301.464,444.539 332.807,444.539 C364.148,444.539 389.553,415.54 389.553,379.768 Z M283.83,363.216 C283.83,361.837 285.008,360.718 286.459,360.718 C287.908,360.718 289.086,361.837 289.086,363.216 C289.086,364.596 287.908,365.716 286.459,365.716 C285.008,365.716 283.83,364.598 283.83,363.216 Z M289.416,384.325 C289.416,385.982 288.004,387.325 286.264,387.325 C284.522,387.325 283.112,385.982 283.112,384.325 C283.112,382.671 284.522,381.327 286.264,381.327 C288.004,381.327 289.416,382.671 289.416,384.325 Z M297.033,405.141 C297.033,407.074 295.387,408.639 293.355,408.639 C291.322,408.639 289.675,407.074 289.675,405.141 C289.675,403.208 291.321,401.643 293.355,401.643 C295.387,401.643 297.033,403.208 297.033,405.141 Z M376.523,363.216 C376.523,361.837 377.699,360.718 379.148,360.718 C380.599,360.718 381.777,361.837 381.777,363.216 C381.777,364.596 380.599,365.716 379.148,365.716 C377.699,365.716 376.523,364.598 376.523,363.216 Z M375.93,405.141 C375.93,407.074 374.285,408.639 372.254,408.639 C370.223,408.639 368.574,407.074 368.574,405.141 C368.574,403.208 370.22,401.643 372.254,401.643 C374.288,401.643 375.93,403.208 375.93,405.141 Z M382.496,384.325 C382.496,385.982 381.086,387.325 379.344,387.325 C377.604,387.325 376.194,385.982 376.194,384.325 C376.194,382.671 377.604,381.327 379.344,381.327 C381.086,381.327 382.496,382.671 382.496,384.325 Z M315.148,352.18 L335.326,364.174 L331.543,367.774 L327.76,371.375 L315.148,352.18 Z" id="Shape"></path>
        </g>
    </g>
</svg>