<?xml version="1.0" encoding="UTF-8" standalone="no"?>
<svg width="153px" height="227px" viewBox="0 0 153 227" version="1.1" xmlns="http://www.w3.org/2000/svg" xmlns:xlink="http://www.w3.org/1999/xlink">
    <!-- Generator: Sketch 41.2 (35397) - http://www.bohemiancoding.com/sketch -->
    <title>EFNW_standard_4_</title>
    <desc>Created with Sketch.</desc>
    <defs></defs>
    <g id="Page-1" stroke="none" stroke-width="1" fill="none" fill-rule="evenodd">
        <g id="logo-green" transform="translate(-252.000000, -9.000000)" fill="#057848">
            <path d="M285.264,52.41 L297.911,33.163 L310.557,52.41 L303.33,51.035 L308.75,59.284 L316.989,46.224 L310.051,47.598 L323.061,26.976 L316.123,28.351 L328.264,9.104 L340.409,28.351 L333.471,26.976 L346.481,47.598 L339.543,46.224 L347.781,59.284 L353.201,51.035 L345.973,52.41 L358.619,33.163 L371.266,52.41 L364.037,51.035 L377.587,71.657 L370.361,70.282 L377.479,81.117 L365.418,91.766 C356.178,79.4 342.95,71.656 328.26,71.656 C313.571,71.656 300.344,79.4 291.102,91.766 L279.042,81.117 L286.161,70.282 L278.933,71.657 L292.485,51.035 L285.264,52.41 Z M343.441,148.645 L318.146,143.833 L297.911,105.339 L338.383,124.586 L343.441,148.645 Z M328.264,235.257 C286.354,235.257 252.38,196.48 252.38,148.645 C252.38,134.877 255.199,121.863 260.208,110.303 L253.854,106.275 C257.206,99.496 261.25,93.23 265.874,87.582 L284.966,101.85 C280.34,111.291 277.679,122.367 277.679,134.21 C277.679,168.757 300.327,196.763 328.269,196.763 C356.209,196.763 378.859,168.758 378.859,134.21 C378.859,122.366 376.197,111.291 371.572,101.85 L390.664,87.582 C395.284,93.23 399.331,99.496 402.681,106.275 L396.327,110.303 C401.336,121.863 404.155,134.878 404.155,148.645 C404.148,196.479 370.175,235.257 328.264,235.257 Z M266.292,129.855 C268.23,129.855 269.805,128.359 269.805,126.514 C269.805,124.67 268.233,123.173 266.292,123.173 C264.351,123.173 262.777,124.67 262.777,126.514 C262.777,128.36 264.352,129.855 266.292,129.855 Z M266.031,150.732 C263.702,150.732 261.814,152.526 261.814,154.742 C261.814,156.957 263.702,158.752 266.031,158.752 C268.359,158.752 270.248,156.957 270.248,154.742 C270.248,152.527 268.359,150.732 266.031,150.732 Z M275.514,177.896 C272.797,177.896 270.596,179.991 270.596,182.575 C270.596,185.158 272.797,187.253 275.514,187.253 C278.229,187.253 280.432,185.157 280.432,182.575 C280.432,179.99 278.229,177.896 275.514,177.896 Z M390.237,129.855 C392.175,129.855 393.751,128.359 393.751,126.514 C393.751,124.67 392.177,123.173 390.237,123.173 C388.297,123.173 386.722,124.67 386.722,126.514 C386.725,128.36 388.297,129.855 390.237,129.855 Z M381.016,177.896 C378.3,177.896 376.097,179.991 376.097,182.575 C376.097,185.158 378.3,187.253 381.016,187.253 C383.732,187.253 385.934,185.157 385.934,182.575 C385.934,179.99 383.73,177.896 381.016,177.896 Z M390.498,150.732 C388.17,150.732 386.281,152.526 386.281,154.742 C386.281,156.957 388.17,158.752 390.498,158.752 C392.825,158.752 394.713,156.957 394.713,154.742 C394.713,152.527 392.825,150.732 390.498,150.732 Z M321.52,137.418 L326.581,132.606 L331.64,127.794 L304.661,111.755 L321.52,137.418 Z" id="EFNW_standard_4_"></path>
        </g>
    </g>
</svg>