<?xml version="1.0" encoding="UTF-8" standalone="no"?>
<svg width="196px" height="196px" viewBox="0 0 196 196" version="1.1" xmlns="http://www.w3.org/2000/svg" xmlns:xlink="http://www.w3.org/1999/xlink">
    <!-- Generator: Sketch 41.2 (35397) - http://www.bohemiancoding.com/sketch -->
    <title>Group</title>
    <desc>Created with Sketch.</desc>
    <defs></defs>
    <g id="Page-1" stroke="none" stroke-width="1" fill="none" fill-rule="evenodd">
        <g id="logo-green" transform="translate(0.000000, -266.000000)">
            <g id="Group" transform="translate(0.000000, 266.000000)">
                <ellipse id="Oval" fill="#FFFFFF" cx="99.5" cy="96.5" rx="92" ry="89"></ellipse>
                <path d="M195.62,97.594 C195.62,151.44 151.971,195.089 98.125,195.089 C44.28,195.089 0.63,151.44 0.63,97.594 C0.63,43.748 44.28,0.098 98.125,0.098 C151.971,0.098 195.62,43.748 195.62,97.594 Z M72.063,41.276 L61.93,56.698 L67.335,55.669 L62.011,63.772 L71.029,71.736 C77.941,62.488 87.831,56.697 98.819,56.697 C109.805,56.697 119.694,62.488 126.608,71.736 L135.627,63.772 L130.303,55.669 L135.706,56.698 L125.574,41.276 L130.975,42.303 L121.518,27.909 L112.059,42.303 L117.463,41.276 L113.41,47.444 L107.248,37.677 L112.436,38.705 L102.708,23.284 L107.896,24.312 L98.816,9.918 L89.733,24.312 L94.922,23.284 L85.193,38.705 L90.381,37.677 L84.22,47.444 L80.167,41.276 L85.571,42.303 L76.112,27.909 L66.654,42.303 L72.063,41.276 Z M106.383,96.279 L76.117,81.885 L91.25,110.673 L110.167,114.272 L106.383,96.279 Z M155.566,114.271 C155.566,103.974 153.457,94.242 149.712,85.597 L154.463,82.585 C151.96,77.515 148.934,72.83 145.477,68.606 L131.2,79.275 C134.659,86.336 136.65,94.619 136.65,103.477 C136.65,129.313 119.712,150.255 98.818,150.255 C77.922,150.255 60.985,129.313 60.985,103.477 C60.985,94.621 62.975,86.336 66.435,79.275 L52.156,68.606 C48.701,72.83 45.676,77.515 43.17,82.585 L47.922,85.597 C44.177,94.242 42.068,103.974 42.068,114.271 C42.068,150.042 67.475,179.042 98.817,179.042 C130.159,179.042 155.566,150.044 155.566,114.271 Z M49.844,97.721 C49.844,96.342 51.021,95.223 52.472,95.223 C53.922,95.223 55.1,96.342 55.1,97.721 C55.1,99.102 53.922,100.221 52.472,100.221 C51.021,100.221 49.844,99.102 49.844,97.721 Z M55.43,118.83 C55.43,120.486 54.018,121.83 52.278,121.83 C50.536,121.83 49.125,120.486 49.125,118.83 C49.125,117.175 50.536,115.832 52.278,115.832 C54.018,115.832 55.43,117.175 55.43,118.83 Z M63.046,139.645 C63.046,141.579 61.4,143.143 59.368,143.143 C57.336,143.143 55.69,141.579 55.69,139.645 C55.69,137.713 57.336,136.147 59.368,136.147 C61.4,136.146 63.046,137.713 63.046,139.645 Z M142.536,97.721 C142.536,96.342 143.712,95.223 145.162,95.223 C146.613,95.223 147.79,96.342 147.79,97.721 C147.79,99.102 146.614,100.221 145.162,100.221 C143.712,100.221 142.536,99.102 142.536,97.721 Z M141.943,139.645 C141.943,141.579 140.297,143.143 138.265,143.143 C136.232,143.143 134.585,141.579 134.585,139.645 C134.585,137.713 136.231,136.147 138.265,136.147 C140.298,136.146 141.943,137.713 141.943,139.645 Z M148.51,118.83 C148.51,120.486 147.1,121.83 145.358,121.83 C143.619,121.83 142.207,120.486 142.207,118.83 C142.207,117.175 143.619,115.832 145.358,115.832 C147.1,115.832 148.51,117.175 148.51,118.83 Z M81.162,86.684 L101.34,98.68 L97.557,102.278 L93.774,105.879 L81.162,86.684 Z" id="Shape" fill="#057848"></path>
            </g>
        </g>
    </g>
</svg>