<?xml version="1.0" encoding="utf-8"?>
<!-- Generator: Adobe Illustrator 16.0.0, SVG Export Plug-In . SVG Version: 6.00 Build 0)  -->
<!DOCTYPE svg PUBLIC "-//W3C//DTD SVG 1.1//EN" "http://www.w3.org/Graphics/SVG/1.1/DTD/svg11.dtd">
<svg version="1.1" id="Layer_1" xmlns="http://www.w3.org/2000/svg" xmlns:xlink="http://www.w3.org/1999/xlink" x="0px" y="0px"
	 width="1300px" height="512px" viewBox="0 0 1300 512" enable-background="new 0 0 1300 512" xml:space="preserve">
<g>
	<path fill="#007848" d="M50.152,104.783c0-12.583,3.468-23.282,10.405-32.102c6.937-8.817,16.426-16.051,28.472-21.697
		c12.043-5.646,26.077-9.759,42.103-12.34c16.023-2.581,33.175-3.872,51.459-3.872c8.711,0,17.206,0.081,25.488,0.242
		c8.28,0.162,15.834,0.403,22.665,0.726c6.828,0.323,12.716,0.701,17.664,1.129c4.945,0.431,8.55,0.915,10.808,1.452
		c2.15,0.54,3.872,1.129,5.162,1.774c1.291,0.646,2.258,1.399,2.904,2.258c0.645,0.862,1.074,1.855,1.291,2.984
		c0.214,1.129,0.323,2.448,0.323,3.952c0,1.291-0.162,2.717-0.484,4.275c-0.322,1.56-0.806,3.012-1.452,4.355
		c-0.645,1.346-1.452,2.5-2.42,3.468c-0.968,0.968-2.152,1.452-3.549,1.452c-0.862,0-1.802-0.375-2.823-1.129
		c-1.023-0.751-2.475-1.719-4.355-2.904c-1.883-1.182-4.411-2.419-7.582-3.71c-3.173-1.291-7.42-2.526-12.744-3.71
		c-5.323-1.182-11.938-2.15-19.842-2.904c-7.904-0.751-17.45-1.129-28.633-1.129v103.402h66.945v14.196h-66.945v63.074
		c0,5.057,0.751,9.384,2.258,12.986c1.505,3.604,3.655,6.589,6.453,8.953c2.795,2.367,6.155,4.089,10.082,5.162
		c3.925,1.076,8.308,1.613,13.147,1.613c5.484,0,10.969-0.565,16.454-1.694c5.484-1.129,10.672-2.553,15.567-4.274
		c4.892-1.719,9.356-3.655,13.389-5.807c4.033-2.15,7.285-4.248,9.76-6.292l6.291,6.937c-2.689,2.152-6.291,5.082-10.808,8.792
		c-4.517,3.71-10.029,7.34-16.535,10.889c-6.508,3.549-14.09,6.641-22.745,9.275c-8.658,2.634-18.471,3.952-29.44,3.952
		c-3.657,0-7.824-0.188-12.502-0.564c-4.678-0.378-9.492-1.13-14.438-2.259c-4.948-1.129-9.815-2.795-14.599-5
		c-4.787-2.203-9.034-5.135-12.744-8.792c-3.71-3.655-6.722-8.146-9.034-13.47c-2.314-5.324-3.468-11.695-3.468-19.116v-64.364
		h-25.165v-14.196H132.1V49.291c-3.443,0.323-7.395,0.943-11.856,1.855c-4.464,0.915-9.034,2.205-13.712,3.871
		c-4.678,1.669-9.275,3.63-13.792,5.888c-4.517,2.258-8.549,4.895-12.099,7.904c-3.549,3.012-6.427,6.372-8.63,10.083
		c-2.205,3.71-3.307,7.718-3.307,12.018c0,3.443,0.456,6.186,1.371,8.227c0.913,2.044,1.961,3.577,3.146,4.598
		c1.182,1.023,2.392,1.668,3.63,1.936c1.235,0.27,2.122,0.403,2.662,0.403c2.687,0,4.892-0.456,6.614-1.371
		c1.719-0.913,3.279-1.88,4.678-2.904c1.396-1.021,2.714-1.989,3.952-2.903c1.235-0.913,2.662-1.372,4.275-1.372
		c1.291,0,2.662,0.298,4.113,0.888c1.452,0.592,2.795,1.532,4.033,2.823c1.235,1.291,2.283,2.984,3.146,5.082
		c0.859,2.097,1.291,4.653,1.291,7.662c0,4.303-0.834,8.041-2.5,11.211c-1.668,3.173-3.819,5.782-6.453,7.824
		c-2.636,2.044-5.646,3.577-9.034,4.598c-3.388,1.023-6.75,1.532-10.082,1.532c-5.162,0-9.815-0.887-13.954-2.662
		c-4.141-1.774-7.663-4.219-10.566-7.34c-2.903-3.118-5.109-6.747-6.614-10.889C50.903,114.114,50.152,109.622,50.152,104.783z"/>
	<path fill="#007848" d="M294.221,138.82c-0.645-4.3-1.693-7.635-3.146-10.001c-1.452-2.364-3.899-3.549-7.34-3.549
		c-1.83,0-3.415,0.323-4.759,0.968c-1.343,0.645-2.768,1.56-4.275,2.742l-3.226-4.033c2.475-2.042,5.243-4.058,8.308-6.049
		c3.065-1.989,6.372-3.735,9.921-5.243c3.549-1.505,7.365-2.743,11.453-3.71c4.086-0.968,8.389-1.452,12.905-1.452
		c6.453,0,11.667,1.104,15.647,3.307c3.978,2.206,7.123,4.948,9.437,8.227c2.312,3.282,3.952,6.803,4.92,10.566
		c0.968,3.766,1.667,7.153,2.097,10.163c3.978,32.585,8.441,57.267,13.389,74.043c4.945,16.777,10.808,25.165,17.583,25.165
		c3.763,0,7.393-2.042,10.889-6.13c3.493-4.086,6.559-9.679,9.195-16.777c2.634-7.098,4.759-15.378,6.372-24.842
		c1.613-9.462,2.419-19.572,2.419-30.327c0-7.098-0.484-13.092-1.452-17.987c-0.968-4.892-2.044-9.006-3.226-12.34
		c-1.185-3.332-2.259-6.102-3.227-8.308c-0.968-2.203-1.452-4.167-1.452-5.888c0-1.613,0.645-2.957,1.936-4.033
		c1.291-1.074,2.823-1.989,4.598-2.742c1.774-0.751,3.602-1.291,5.484-1.613c1.88-0.323,3.413-0.484,4.598-0.484
		c3.118,0,5.376,0.431,6.775,1.291c1.396,0.862,2.525,2.528,3.387,5c0.968,3.121,1.639,7.234,2.017,12.341
		c0.375,5.109,0.564,10.566,0.564,16.374c0,8.282-0.564,17.369-1.693,27.262c-1.129,9.896-2.851,19.842-5.162,29.843
		c-2.314,10.001-5.243,19.681-8.792,29.037c-3.549,9.356-7.771,17.664-12.663,24.923c-4.895,7.259-10.433,13.066-16.615,17.422
		c-6.186,4.355-13.094,6.533-20.729,6.533c-8.928,0-16.671-2.581-23.229-7.743c-6.561-5.162-12.126-11.882-16.696-20.164
		c-4.572-8.28-8.363-17.583-11.373-27.908c-3.012-10.324-5.459-20.673-7.34-31.053c-1.883-10.377-3.388-20.217-4.517-29.521
		C296.076,152.829,295.081,145.059,294.221,138.82z"/>
	<path fill="#007848" d="M494.574,201.894c0,3.443,0.509,7.179,1.533,11.211c1.021,4.033,2.5,8.093,4.436,12.179
		c1.936,4.088,4.328,7.985,7.179,11.695c2.848,3.71,6.13,7.017,9.84,9.921c3.71,2.904,7.824,5.217,12.34,6.937
		c4.517,1.721,9.462,2.581,14.841,2.581c3.763,0,7.259-0.428,10.485-1.29c3.227-0.859,6.236-2.042,9.034-3.549
		c2.795-1.505,5.485-3.251,8.066-5.243c2.581-1.989,5.162-4.114,7.743-6.372l4.033,3.872c-2.475,3.334-5.646,6.992-9.518,10.969
		c-3.872,3.98-8.55,7.719-14.034,11.212c-5.485,3.496-11.884,6.399-19.197,8.711c-7.314,2.312-15.647,3.468-25.003,3.468
		c-9.356,0-18.471-1.693-27.343-5.081c-8.873-3.388-16.751-8.469-23.633-15.244c-6.883-6.775-12.396-15.216-16.535-25.326
		c-4.141-10.107-6.21-21.939-6.21-35.489c0-9.785,1.235-18.766,3.71-26.939c2.473-8.171,5.833-15.539,10.083-22.1
		c4.247-6.559,9.195-12.313,14.841-17.261c5.646-4.945,11.587-9.059,17.825-12.34c6.236-3.279,12.607-5.752,19.116-7.42
		c6.505-1.667,12.769-2.5,18.793-2.5c7.958,0,14.894,0.862,20.81,2.581c5.913,1.721,10.833,4.033,14.76,6.937
		c3.925,2.903,6.856,6.266,8.792,10.082c1.936,3.819,2.903,7.824,2.903,12.018c0,5.056-1.452,9.598-4.355,13.631
		c-2.903,4.033-6.775,7.557-11.615,10.566L494.574,201.894z M526.998,169.147c1.396-0.86,2.553-1.694,3.468-2.5
		c0.913-0.807,1.639-1.774,2.178-2.904c0.537-1.129,0.94-2.525,1.21-4.194c0.267-1.667,0.403-3.736,0.403-6.211
		c0-2.687-0.297-5.671-0.887-8.953c-0.592-3.279-1.588-6.372-2.984-9.276c-1.399-2.904-3.173-5.323-5.323-7.259
		c-2.153-1.936-4.734-2.903-7.743-2.903c-3.872,0-7.179,1.157-9.921,3.468c-2.742,2.314-5,5.298-6.775,8.953
		c-1.774,3.658-3.173,7.824-4.194,12.502c-1.023,4.678-1.802,9.384-2.339,14.115c-0.539,4.733-0.862,9.275-0.968,13.631
		c-0.108,4.355-0.161,8.041-0.161,11.05L526.998,169.147z"/>
	<path fill="#007848" d="M657.341,142.53c4.086-6.236,8.441-11.882,13.066-16.938c1.936-2.15,4.032-4.247,6.291-6.291
		c2.259-2.042,4.598-3.872,7.018-5.485c2.419-1.613,4.92-2.904,7.501-3.872s5.162-1.452,7.743-1.452
		c5.484,0,9.784,1.641,12.904,4.92c3.118,3.282,4.679,7.879,4.679,13.792c0,3.657-0.298,7.178-0.888,10.566
		c-0.592,3.388-1.749,7.501-3.468,12.341h-4.517c-0.646-3.332-2.153-6.103-4.518-8.308c-2.366-2.203-5.807-3.307-10.323-3.307
		c-3.335,0-6.614,0.62-9.841,1.855c-3.227,1.238-6.372,2.77-9.437,4.598c-3.065,1.83-5.969,3.818-8.711,5.969
		c-2.743,2.152-5.243,4.194-7.501,6.13v104.693c0,1.398-0.217,3.064-0.646,5c-0.431,1.936-1.479,3.766-3.146,5.484
		c-1.669,1.723-4.142,3.201-7.421,4.438c-3.282,1.234-7.771,1.854-13.47,1.854c-5.701,0-10.19-0.673-13.47-2.017
		c-3.282-1.344-5.782-2.929-7.501-4.759c-1.722-1.827-2.798-3.71-3.227-5.646c-0.431-1.936-0.645-3.494-0.645-4.678V136.884
		c0-3.118-0.726-5.833-2.178-8.146c-1.452-2.312-3.899-3.469-7.34-3.469c-1.83,0-3.388,0.323-4.678,0.968
		c-1.291,0.645-2.689,1.56-4.194,2.742l-3.388-4.033c2.473-2.042,5.243-4.058,8.308-6.049c3.065-1.989,6.372-3.735,9.921-5.243
		c3.549-1.505,7.365-2.743,11.453-3.71c4.086-0.968,8.389-1.452,12.905-1.452c4.623,0,8.575,0.62,11.856,1.855
		c3.279,1.238,5.969,2.851,8.066,4.839c2.097,1.991,3.735,4.222,4.92,6.695c1.183,2.475,2.069,4.976,2.661,7.501
		c0.59,2.528,0.941,4.948,1.049,7.259C657.285,138.956,657.341,140.917,657.341,142.53z"/>
	<path fill="#007848" d="M816.558,36.063c-3.012,0-5.863,0.645-8.55,1.936c-2.689,1.291-5.028,3.362-7.017,6.211
		c-1.991,2.851-3.577,6.48-4.759,10.889c-1.186,4.411-1.775,9.734-1.775,15.97v39.684h35.328v11.615h-35.328v127.116
		c0,14.626-1.91,28.122-5.727,40.49c-3.818,12.366-9.598,23.04-17.341,32.021c-7.743,8.979-17.422,15.996-29.037,21.053
		c-11.614,5.053-25.165,7.581-40.65,7.581c-5.485,0-10.753-0.458-15.81-1.371c-5.054-0.915-9.518-2.178-13.389-3.791
		c-3.872-1.612-6.962-3.523-9.276-5.727c-2.311-2.206-3.468-4.653-3.468-7.34c0-1.936,0.271-3.899,0.807-5.888
		c0.54-1.991,1.347-3.791,2.42-5.404c1.076-1.613,2.395-2.932,3.952-3.952c1.561-1.023,3.362-1.532,5.404-1.532
		c1.185,0,2.232,0.59,3.146,1.774c0.915,1.183,1.854,2.634,2.823,4.355c0.968,1.719,2.071,3.63,3.307,5.727
		c1.237,2.097,2.823,4.005,4.759,5.727c1.936,1.72,4.33,3.171,7.179,4.355c2.851,1.183,6.318,1.774,10.404,1.774
		c5.484,0,10.324-1.104,14.519-3.307c4.194-2.205,7.796-5.243,10.808-9.114c3.01-3.872,5.538-8.444,7.582-13.712
		c2.042-5.271,3.655-10.916,4.84-16.938c1.182-6.024,2.016-12.316,2.5-18.875c0.484-6.558,0.726-13.119,0.726-19.68V122.366h-29.682
		v-11.615h29.682V91.877c0-9.462,1.154-17.717,3.469-24.762c2.312-7.042,5.376-13.039,9.194-17.986
		c3.816-4.945,8.146-8.978,12.986-12.099c4.84-3.118,9.76-5.59,14.76-7.42c5.001-1.828,9.866-3.065,14.6-3.71
		c4.73-0.645,8.872-0.968,12.421-0.968c7.635,0,14.41,0.564,20.326,1.694c5.913,1.129,10.86,2.636,14.841,4.517
		c3.978,1.883,6.989,4.061,9.033,6.533c2.042,2.476,3.065,5.001,3.065,7.582c0,1.936-0.298,3.899-0.888,5.888
		c-0.592,1.991-1.427,3.818-2.5,5.484c-1.076,1.668-2.395,3.012-3.952,4.033c-1.561,1.023-3.308,1.533-5.243,1.533
		c-1.185,0-2.258-0.645-3.227-1.936c-0.968-1.291-1.991-2.904-3.064-4.84c-1.076-1.936-2.259-4.033-3.549-6.291
		c-1.291-2.258-2.879-4.355-4.759-6.292c-1.883-1.936-4.113-3.549-6.694-4.839S820.106,36.063,816.558,36.063z"/>
	<path fill="#007848" d="M895.925,142.53c4.085-6.236,8.44-11.882,13.066-16.938c1.936-2.15,4.032-4.247,6.291-6.291
		c2.259-2.042,4.598-3.872,7.018-5.485c2.419-1.613,4.92-2.904,7.501-3.872s5.162-1.452,7.743-1.452
		c5.484,0,9.784,1.641,12.904,4.92c3.118,3.282,4.679,7.879,4.679,13.792c0,3.657-0.298,7.178-0.888,10.566
		c-0.592,3.388-1.749,7.501-3.468,12.341h-4.517c-0.646-3.332-2.153-6.103-4.518-8.308c-2.366-2.203-5.807-3.307-10.323-3.307
		c-3.335,0-6.614,0.62-9.841,1.855c-3.227,1.238-6.372,2.77-9.437,4.598c-3.065,1.83-5.969,3.818-8.711,5.969
		c-2.742,2.152-5.243,4.194-7.501,6.13v104.693c0,1.398-0.217,3.064-0.646,5c-0.432,1.936-1.479,3.766-3.146,5.484
		c-1.669,1.723-4.142,3.201-7.421,4.438c-3.281,1.234-7.771,1.854-13.47,1.854c-5.701,0-10.19-0.673-13.47-2.017
		c-3.281-1.344-5.782-2.929-7.501-4.759c-1.722-1.827-2.798-3.71-3.227-5.646c-0.431-1.936-0.646-3.494-0.646-4.678V136.884
		c0-3.118-0.726-5.833-2.178-8.146c-1.451-2.312-3.898-3.469-7.339-3.469c-1.83,0-3.388,0.323-4.679,0.968
		c-1.29,0.645-2.689,1.56-4.194,2.742l-3.388-4.033c2.473-2.042,5.243-4.058,8.308-6.049c3.065-1.989,6.372-3.735,9.921-5.243
		c3.549-1.505,7.365-2.743,11.454-3.71c4.085-0.968,8.388-1.452,12.904-1.452c4.623,0,8.575,0.62,11.857,1.855
		c3.279,1.238,5.969,2.851,8.065,4.839c2.097,1.991,3.735,4.222,4.92,6.695c1.183,2.475,2.069,4.976,2.662,7.501
		c0.59,2.528,0.939,4.948,1.048,7.259C895.869,138.956,895.925,140.917,895.925,142.53z"/>
	<path fill="#007848" d="M1010.619,201.894c0,3.443,0.51,7.179,1.533,11.211c1.021,4.033,2.5,8.093,4.436,12.179
		c1.936,4.088,4.328,7.985,7.179,11.695c2.848,3.71,6.13,7.017,9.84,9.921c3.711,2.904,7.824,5.217,12.341,6.937
		c4.517,1.721,9.462,2.581,14.841,2.581c3.764,0,7.259-0.428,10.485-1.29c3.227-0.859,6.236-2.042,9.034-3.549
		c2.795-1.505,5.484-3.251,8.065-5.243c2.581-1.989,5.162-4.114,7.743-6.372l4.032,3.872c-2.475,3.334-5.646,6.992-9.517,10.969
		c-3.872,3.98-8.55,7.719-14.035,11.212c-5.484,3.496-11.884,6.399-19.196,8.711c-7.314,2.312-15.647,3.468-25.004,3.468
		c-9.355,0-18.47-1.693-27.343-5.081c-8.872-3.388-16.751-8.469-23.632-15.244c-6.884-6.775-12.396-15.216-16.535-25.326
		c-4.142-10.107-6.211-21.939-6.211-35.489c0-9.785,1.235-18.766,3.711-26.939c2.473-8.171,5.832-15.539,10.082-22.1
		c4.247-6.559,9.194-12.313,14.841-17.261c5.646-4.945,11.587-9.059,17.825-12.34c6.235-3.279,12.607-5.752,19.115-7.42
		c6.506-1.667,12.77-2.5,18.794-2.5c7.957,0,14.894,0.862,20.81,2.581c5.913,1.721,10.833,4.033,14.76,6.937
		c3.925,2.903,6.856,6.266,8.792,10.082c1.936,3.819,2.903,7.824,2.903,12.018c0,5.056-1.452,9.598-4.355,13.631
		s-6.775,7.557-11.614,10.566L1010.619,201.894z M1043.044,169.147c1.396-0.86,2.553-1.694,3.468-2.5
		c0.912-0.807,1.639-1.774,2.178-2.904c0.537-1.129,0.94-2.525,1.21-4.194c0.268-1.667,0.403-3.736,0.403-6.211
		c0-2.687-0.298-5.671-0.888-8.953c-0.592-3.279-1.588-6.372-2.983-9.276c-1.399-2.904-3.174-5.323-5.324-7.259
		c-2.152-1.936-4.733-2.903-7.743-2.903c-3.871,0-7.178,1.157-9.92,3.468c-2.743,2.314-5.001,5.298-6.775,8.953
		c-1.774,3.658-3.174,7.824-4.194,12.502c-1.023,4.678-1.803,9.384-2.339,14.115c-0.54,4.733-0.862,9.275-0.968,13.631
		c-0.108,4.355-0.162,8.041-0.162,11.05L1043.044,169.147z"/>
	<path fill="#007848" d="M1160.318,201.894c0,3.443,0.51,7.179,1.533,11.211c1.021,4.033,2.5,8.093,4.436,12.179
		c1.936,4.088,4.328,7.985,7.179,11.695c2.848,3.71,6.13,7.017,9.84,9.921c3.711,2.904,7.824,5.217,12.341,6.937
		c4.517,1.721,9.462,2.581,14.841,2.581c3.764,0,7.259-0.428,10.485-1.29c3.227-0.859,6.236-2.042,9.034-3.549
		c2.795-1.505,5.484-3.251,8.065-5.243c2.581-1.989,5.162-4.114,7.743-6.372l4.032,3.872c-2.475,3.334-5.646,6.992-9.517,10.969
		c-3.872,3.98-8.55,7.719-14.035,11.212c-5.484,3.496-11.884,6.399-19.196,8.711c-7.314,2.312-15.647,3.468-25.004,3.468
		c-9.355,0-18.47-1.693-27.343-5.081c-8.872-3.388-16.751-8.469-23.632-15.244c-6.884-6.775-12.396-15.216-16.535-25.326
		c-4.142-10.107-6.211-21.939-6.211-35.489c0-9.785,1.235-18.766,3.711-26.939c2.473-8.171,5.832-15.539,10.082-22.1
		c4.247-6.559,9.194-12.313,14.841-17.261c5.646-4.945,11.587-9.059,17.825-12.34c6.235-3.279,12.607-5.752,19.115-7.42
		c6.506-1.667,12.77-2.5,18.794-2.5c7.957,0,14.894,0.862,20.81,2.581c5.913,1.721,10.833,4.033,14.76,6.937
		c3.925,2.903,6.856,6.266,8.792,10.082c1.936,3.819,2.903,7.824,2.903,12.018c0,5.056-1.452,9.598-4.355,13.631
		s-6.775,7.557-11.614,10.566L1160.318,201.894z M1192.743,169.147c1.396-0.86,2.553-1.694,3.468-2.5
		c0.912-0.807,1.639-1.774,2.178-2.904c0.537-1.129,0.94-2.525,1.21-4.194c0.268-1.667,0.403-3.736,0.403-6.211
		c0-2.687-0.298-5.671-0.888-8.953c-0.592-3.279-1.588-6.372-2.983-9.276c-1.399-2.904-3.174-5.323-5.324-7.259
		c-2.152-1.936-4.733-2.903-7.743-2.903c-3.871,0-7.178,1.157-9.92,3.468c-2.743,2.314-5.001,5.298-6.775,8.953
		c-1.774,3.658-3.174,7.824-4.194,12.502c-1.023,4.678-1.803,9.384-2.339,14.115c-0.54,4.733-0.862,9.275-0.968,13.631
		c-0.108,4.355-0.162,8.041-0.162,11.05L1192.743,169.147z"/>
</g>
<g>
	<path fill="#007848" d="M190.938,303.519h22.195l43.756,120.805h0.634c-0.211-2.817-0.494-5.954-0.846-9.407
		c-0.353-3.451-0.67-7.38-0.95-11.783c-0.283-4.402-0.529-9.389-0.741-14.956c-0.211-5.565-0.316-11.837-0.316-18.813v-65.846
		h24.521v180.519h-22.407l-43.544-117.632h-0.845c0.21,3.17,0.492,6.604,0.845,10.304c0.352,3.699,0.669,8.051,0.952,13.053
		c0.28,5.005,0.527,10.833,0.739,17.492c0.211,6.658,0.317,14.568,0.317,23.729v53.055h-24.31V303.519z"/>
	<path fill="#007848" d="M350.001,485.623c-2.89,0-6.023-0.229-9.405-0.687c-3.383-0.458-6.73-1.426-10.041-2.905
		c-3.313-1.48-6.499-3.576-9.565-6.289c-3.064-2.712-5.777-6.289-8.137-10.728c-2.362-4.438-4.247-9.918-5.655-16.436
		c-1.41-6.517-2.113-14.284-2.113-23.306v-63.941c0-9.09,0.722-16.857,2.166-23.305c1.443-6.448,3.364-11.873,5.761-16.277
		c2.395-4.402,5.126-7.908,8.19-10.515c3.065-2.606,6.271-4.599,9.618-5.973c3.345-1.374,6.675-2.272,9.988-2.694
		c3.311-0.424,6.375-0.635,9.193-0.635c2.678,0,5.655,0.193,8.933,0.58c3.275,0.389,6.552,1.234,9.828,2.539
		c3.276,1.303,6.464,3.24,9.565,5.813c3.099,2.572,5.848,6.059,8.243,10.463c2.395,4.404,4.315,9.865,5.761,16.383
		c1.443,6.518,2.166,14.391,2.166,23.621v63.941c0,8.951-0.739,16.646-2.22,23.095c-1.479,6.446-3.417,11.907-5.812,16.382
		c-2.396,4.477-5.163,8.068-8.298,10.779c-3.136,2.713-6.341,4.828-9.617,6.342c-3.276,1.518-6.537,2.518-9.776,3.012
		C355.533,485.375,352.607,485.623,350.001,485.623z M350.001,465.015c2.678,0,5.021-0.459,7.029-1.374
		c2.009-0.916,3.663-2.502,4.968-4.758c1.303-2.252,2.289-5.23,2.959-8.93c0.669-3.699,1.005-8.365,1.005-14.003v-82.122
		c0-5.777-0.336-10.604-1.005-14.48c-0.67-3.873-1.656-6.992-2.959-9.354c-1.305-2.36-2.959-4.033-4.968-5.02
		c-2.008-0.986-4.352-1.48-7.029-1.48c-2.747,0-5.144,0.494-7.187,1.48c-2.044,0.986-3.734,2.659-5.072,5.02
		c-1.34,2.361-2.343,5.48-3.013,9.354c-0.67,3.877-1.004,8.703-1.004,14.48v82.122c0,5.638,0.334,10.304,1.004,14.003
		s1.673,6.678,3.013,8.93c1.338,2.256,3.028,3.842,5.072,4.758C344.857,464.556,347.254,465.015,350.001,465.015z"/>
	<path fill="#007848" d="M420.392,303.519h29.699c3.382,0,7.098,0.143,11.149,0.424c4.051,0.28,8.103,0.97,12.155,2.061
		c4.051,1.093,7.962,2.731,11.731,4.914c3.769,2.185,7.116,5.179,10.04,8.983s5.267,8.58,7.028,14.322
		c1.761,5.742,2.644,12.701,2.644,20.874v4.544c0,13.739-1.974,24.928-5.919,33.556c-3.947,8.632-9.76,14.851-17.439,18.655
		l28.96,72.186h-28.96l-23.991-67.535h-10.253v67.535h-26.845V303.519z M451.359,396.738c4.79,0,8.841-0.529,12.153-1.585
		c3.312-1.058,5.988-2.835,8.033-5.338c2.043-2.501,3.522-5.813,4.438-9.937c0.915-4.121,1.375-9.211,1.375-15.271V350.34
		c0-4.65-0.424-8.666-1.27-12.049c-0.845-3.383-2.271-6.164-4.279-8.35c-2.009-2.182-4.67-3.804-7.98-4.861
		c-3.313-1.057-7.47-1.586-12.471-1.586h-4.123v73.244H451.359z"/>
	<path fill="#007848" d="M547.854,325.08h-29.065v-21.562h85.397v21.562h-28.959v158.957h-27.373V325.08z"/>
	<path fill="#007848" d="M622.683,303.519h27.374v75.569h32.447v-75.569h27.374v180.519h-27.374v-83.389h-32.447v83.389h-27.374
		V303.519z"/>
	<path fill="#007848" d="M729.43,303.519h26.213l12.153,109.073l1.374,25.471h2.642l2.537-28.641l19.447-105.903h21.877
		l18.603,105.903l2.112,28.641h2.749l1.269-25.471l11.098-109.073h26.316l-25.26,180.519h-27.796l-14.902-86.771l-4.652-37.73
		h-2.111l-4.547,37.73l-15.642,86.771H755.43L729.43,303.519z"/>
	<path fill="#007848" d="M897.267,303.519h66.903v21.562h-39.529v54.008h30.544v21.561h-30.544v61.828h40.585v21.561h-67.959
		V303.519z"/>
	<path fill="#007848" d="M978.014,447.469c0-3.875,0.229-7.451,0.688-10.727c0.457-3.276,1.144-6.818,2.061-10.623h21.242v8.773
		c0,4.861,0.3,9.16,0.899,12.893c0.598,3.736,1.585,6.891,2.959,9.461c1.374,2.572,3.206,4.51,5.497,5.813
		c2.288,1.304,5.089,1.955,8.401,1.955c5.214,0,9.196-1.429,11.943-4.282c2.748-2.852,4.122-7.028,4.122-12.523
		c0-2.816-0.196-5.406-0.581-7.768c-0.389-2.361-1.058-4.704-2.009-7.029c-0.95-2.324-2.237-4.771-3.858-7.345
		c-1.622-2.571-3.699-5.443-6.234-8.613l-28.538-33.927c-5.071-6.481-8.983-13.017-11.729-19.606
		c-2.749-6.589-4.123-13.614-4.123-21.085c0-5.988,0.935-11.484,2.8-16.488c1.867-5,4.562-9.316,8.087-12.946
		c3.521-3.63,7.874-6.448,13.053-8.454c5.179-2.01,11.044-3.014,17.597-3.014c7.962,0,14.603,1.129,19.922,3.383
		c5.32,2.254,9.566,5.214,12.736,8.879c3.171,3.663,5.407,7.766,6.713,12.313c1.302,4.544,1.955,9.107,1.955,13.687
		c0,3.875-0.302,7.45-0.899,10.726c-0.599,3.277-1.287,6.891-2.061,10.836h-21.139v-8.563c0-9.581-1.373-16.928-4.121-22.036
		s-7.225-7.663-13.423-7.663c-5.146,0-8.983,1.426-11.521,4.28c-2.536,2.854-3.805,6.677-3.805,11.468
		c0,2.537,0.192,4.827,0.581,6.871c0.387,2.043,0.952,3.928,1.692,5.654c0.739,1.727,1.637,3.399,2.694,5.02
		c1.057,1.622,2.253,3.313,3.593,5.074l31.813,38.471c5.777,7.539,10.215,14.78,13.316,21.719
		c3.101,6.941,4.652,14.285,4.652,22.035c0,6.412-1.005,12.193-3.013,17.335c-2.009,5.144-4.88,9.513-8.614,13.104
		c-3.735,3.594-8.243,6.36-13.527,8.297c-5.284,1.938-11.24,2.908-17.862,2.908c-8.175,0-14.955-1.096-20.345-3.277
		c-5.39-2.184-9.69-5.074-12.896-8.668c-3.207-3.592-5.46-7.678-6.765-12.259C978.665,456.946,978.014,452.262,978.014,447.469z"/>
	<path fill="#007848" d="M1102.729,325.08h-29.064v-21.562h85.398v21.562h-28.96v158.957h-27.374V325.08z"/>
</g>
</svg>
