<?xml version="1.0" encoding="utf-8"?>
<!-- Generator: Adobe Illustrator 19.2.1, SVG Export Plug-In . SVG Version: 6.00 Build 0)  -->
<svg version="1.1" id="Layer_1" xmlns="http://www.w3.org/2000/svg" xmlns:xlink="http://www.w3.org/1999/xlink" x="0px" y="0px"
	 viewBox="0 0 1300 512" style="enable-background:new 0 0 1300 512;" xml:space="preserve">
<style type="text/css">
	.st0{fill:#FFEED1;}
</style>
<g>
	<g>
		<path class="st0" d="M50.2,104.8c0-12.6,3.5-23.3,10.4-32.1C67.5,63.9,77,56.6,89,51c12-5.6,26.1-9.8,42.1-12.3
			c16-2.6,33.2-3.9,51.5-3.9c8.7,0,17.2,0.1,25.5,0.2c8.3,0.2,15.8,0.4,22.7,0.7c6.8,0.3,12.7,0.7,17.7,1.1
			c4.9,0.4,8.5,0.9,10.8,1.5c2.1,0.5,3.9,1.1,5.2,1.8c1.3,0.6,2.3,1.4,2.9,2.3c0.6,0.9,1.1,1.9,1.3,3c0.2,1.1,0.3,2.4,0.3,4
			c0,1.3-0.2,2.7-0.5,4.3c-0.3,1.6-0.8,3-1.5,4.4c-0.6,1.3-1.5,2.5-2.4,3.5c-1,1-2.2,1.5-3.5,1.5c-0.9,0-1.8-0.4-2.8-1.1
			c-1-0.8-2.5-1.7-4.4-2.9c-1.9-1.2-4.4-2.4-7.6-3.7c-3.2-1.3-7.4-2.5-12.7-3.7c-5.3-1.2-11.9-2.2-19.8-2.9
			c-7.9-0.8-17.4-1.1-28.6-1.1v103.4H252V165H185V228c0,5.1,0.8,9.4,2.3,13c1.5,3.6,3.7,6.6,6.5,9c2.8,2.4,6.2,4.1,10.1,5.2
			c3.9,1.1,8.3,1.6,13.1,1.6c5.5,0,11-0.6,16.5-1.7c5.5-1.1,10.7-2.6,15.6-4.3c4.9-1.7,9.4-3.7,13.4-5.8c4-2.1,7.3-4.2,9.8-6.3
			l6.3,6.9c-2.7,2.2-6.3,5.1-10.8,8.8c-4.5,3.7-10,7.3-16.5,10.9c-6.5,3.5-14.1,6.6-22.7,9.3c-8.7,2.6-18.5,4-29.4,4
			c-3.7,0-7.8-0.2-12.5-0.6c-4.7-0.4-9.5-1.1-14.4-2.3c-4.9-1.1-9.8-2.8-14.6-5c-4.8-2.2-9-5.1-12.7-8.8c-3.7-3.7-6.7-8.1-9-13.5
			c-2.3-5.3-3.5-11.7-3.5-19.1V165h-25.2v-14.2h25.2V49.3c-3.4,0.3-7.4,0.9-11.9,1.9c-4.5,0.9-9,2.2-13.7,3.9
			c-4.7,1.7-9.3,3.6-13.8,5.9s-8.5,4.9-12.1,7.9c-3.5,3-6.4,6.4-8.6,10.1c-2.2,3.7-3.3,7.7-3.3,12c0,3.4,0.5,6.2,1.4,8.2
			c0.9,2,2,3.6,3.1,4.6c1.2,1,2.4,1.7,3.6,1.9c1.2,0.3,2.1,0.4,2.7,0.4c2.7,0,4.9-0.5,6.6-1.4c1.7-0.9,3.3-1.9,4.7-2.9
			c1.4-1,2.7-2,4-2.9c1.2-0.9,2.7-1.4,4.3-1.4c1.3,0,2.7,0.3,4.1,0.9c1.5,0.6,2.8,1.5,4,2.8c1.2,1.3,2.3,3,3.1,5.1
			c0.9,2.1,1.3,4.7,1.3,7.7c0,4.3-0.8,8-2.5,11.2c-1.7,3.2-3.8,5.8-6.5,7.8c-2.6,2-5.6,3.6-9,4.6c-3.4,1-6.8,1.5-10.1,1.5
			c-5.2,0-9.8-0.9-14-2.7c-4.1-1.8-7.7-4.2-10.6-7.3c-2.9-3.1-5.1-6.7-6.6-10.9C50.9,114.1,50.2,109.6,50.2,104.8z"/>
		<path class="st0" d="M294.2,138.8c-0.6-4.3-1.7-7.6-3.1-10c-1.5-2.4-3.9-3.5-7.3-3.5c-1.8,0-3.4,0.3-4.8,1
			c-1.3,0.6-2.8,1.6-4.3,2.7l-3.2-4c2.5-2,5.2-4.1,8.3-6c3.1-2,6.4-3.7,9.9-5.2c3.5-1.5,7.4-2.7,11.5-3.7c4.1-1,8.4-1.5,12.9-1.5
			c6.5,0,11.7,1.1,15.6,3.3c4,2.2,7.1,4.9,9.4,8.2c2.3,3.3,4,6.8,4.9,10.6c1,3.8,1.7,7.2,2.1,10.2c4,32.6,8.4,57.3,13.4,74
			c4.9,16.8,10.8,25.2,17.6,25.2c3.8,0,7.4-2,10.9-6.1c3.5-4.1,6.6-9.7,9.2-16.8c2.6-7.1,4.8-15.4,6.4-24.8
			c1.6-9.5,2.4-19.6,2.4-30.3c0-7.1-0.5-13.1-1.5-18c-1-4.9-2-9-3.2-12.3c-1.2-3.3-2.3-6.1-3.2-8.3c-1-2.2-1.5-4.2-1.5-5.9
			c0-1.6,0.6-3,1.9-4c1.3-1.1,2.8-2,4.6-2.7c1.8-0.8,3.6-1.3,5.5-1.6c1.9-0.3,3.4-0.5,4.6-0.5c3.1,0,5.4,0.4,6.8,1.3
			c1.4,0.9,2.5,2.5,3.4,5c1,3.1,1.6,7.2,2,12.3c0.4,5.1,0.6,10.6,0.6,16.4c0,8.3-0.6,17.4-1.7,27.3c-1.1,9.9-2.9,19.8-5.2,29.8
			c-2.3,10-5.2,19.7-8.8,29c-3.5,9.4-7.8,17.7-12.7,24.9c-4.9,7.3-10.4,13.1-16.6,17.4c-6.2,4.4-13.1,6.5-20.7,6.5
			c-8.9,0-16.7-2.6-23.2-7.7c-6.6-5.2-12.1-11.9-16.7-20.2c-4.6-8.3-8.4-17.6-11.4-27.9c-3-10.3-5.5-20.7-7.3-31.1
			c-1.9-10.4-3.4-20.2-4.5-29.5C296.1,152.8,295.1,145.1,294.2,138.8z"/>
		<path class="st0" d="M494.6,201.9c0,3.4,0.5,7.2,1.5,11.2c1,4,2.5,8.1,4.4,12.2c1.9,4.1,4.3,8,7.2,11.7c2.8,3.7,6.1,7,9.8,9.9
			s7.8,5.2,12.3,6.9c4.5,1.7,9.5,2.6,14.8,2.6c3.8,0,7.3-0.4,10.5-1.3c3.2-0.9,6.2-2,9-3.5c2.8-1.5,5.5-3.3,8.1-5.2
			c2.6-2,5.2-4.1,7.7-6.4l4,3.9c-2.5,3.3-5.6,7-9.5,11c-3.9,4-8.5,7.7-14,11.2c-5.5,3.5-11.9,6.4-19.2,8.7c-7.3,2.3-15.6,3.5-25,3.5
			c-9.4,0-18.5-1.7-27.3-5.1c-8.9-3.4-16.8-8.5-23.6-15.2c-6.9-6.8-12.4-15.2-16.5-25.3c-4.1-10.1-6.2-21.9-6.2-35.5
			c0-9.8,1.2-18.8,3.7-26.9c2.5-8.2,5.8-15.5,10.1-22.1c4.2-6.6,9.2-12.3,14.8-17.3c5.6-4.9,11.6-9.1,17.8-12.3
			c6.2-3.3,12.6-5.8,19.1-7.4c6.5-1.7,12.8-2.5,18.8-2.5c8,0,14.9,0.9,20.8,2.6c5.9,1.7,10.8,4,14.8,6.9c3.9,2.9,6.9,6.3,8.8,10.1
			c1.9,3.8,2.9,7.8,2.9,12c0,5.1-1.5,9.6-4.4,13.6c-2.9,4-6.8,7.6-11.6,10.6L494.6,201.9z M527,169.1c1.4-0.9,2.6-1.7,3.5-2.5
			c0.9-0.8,1.6-1.8,2.2-2.9c0.5-1.1,0.9-2.5,1.2-4.2c0.3-1.7,0.4-3.7,0.4-6.2c0-2.7-0.3-5.7-0.9-9c-0.6-3.3-1.6-6.4-3-9.3
			c-1.4-2.9-3.2-5.3-5.3-7.3c-2.2-1.9-4.7-2.9-7.7-2.9c-3.9,0-7.2,1.2-9.9,3.5c-2.7,2.3-5,5.3-6.8,9c-1.8,3.7-3.2,7.8-4.2,12.5
			c-1,4.7-1.8,9.4-2.3,14.1c-0.5,4.7-0.9,9.3-1,13.6c-0.1,4.4-0.2,8-0.2,11.1L527,169.1z"/>
		<path class="st0" d="M657.3,142.5c4.1-6.2,8.4-11.9,13.1-16.9c1.9-2.2,4-4.2,6.3-6.3c2.3-2,4.6-3.9,7-5.5c2.4-1.6,4.9-2.9,7.5-3.9
			s5.2-1.5,7.7-1.5c5.5,0,9.8,1.6,12.9,4.9c3.1,3.3,4.7,7.9,4.7,13.8c0,3.7-0.3,7.2-0.9,10.6c-0.6,3.4-1.7,7.5-3.5,12.3h-4.5
			c-0.6-3.3-2.2-6.1-4.5-8.3c-2.4-2.2-5.8-3.3-10.3-3.3c-3.3,0-6.6,0.6-9.8,1.9c-3.2,1.2-6.4,2.8-9.4,4.6c-3.1,1.8-6,3.8-8.7,6
			c-2.7,2.2-5.2,4.2-7.5,6.1v104.7c0,1.4-0.2,3.1-0.6,5c-0.4,1.9-1.5,3.8-3.1,5.5c-1.7,1.7-4.1,3.2-7.4,4.4
			c-3.3,1.2-7.8,1.9-13.5,1.9c-5.7,0-10.2-0.7-13.5-2c-3.3-1.3-5.8-2.9-7.5-4.8c-1.7-1.8-2.8-3.7-3.2-5.6c-0.4-1.9-0.6-3.5-0.6-4.7
			V136.9c0-3.1-0.7-5.8-2.2-8.1c-1.5-2.3-3.9-3.5-7.3-3.5c-1.8,0-3.4,0.3-4.7,1c-1.3,0.6-2.7,1.6-4.2,2.7l-3.4-4
			c2.5-2,5.2-4.1,8.3-6c3.1-2,6.4-3.7,9.9-5.2c3.5-1.5,7.4-2.7,11.5-3.7c4.1-1,8.4-1.5,12.9-1.5c4.6,0,8.6,0.6,11.9,1.9
			c3.3,1.2,6,2.9,8.1,4.8c2.1,2,3.7,4.2,4.9,6.7c1.2,2.5,2.1,5,2.7,7.5c0.6,2.5,0.9,4.9,1,7.3C657.3,139,657.3,140.9,657.3,142.5z"
			/>
		<path class="st0" d="M816.6,36.1c-3,0-5.9,0.6-8.5,1.9c-2.7,1.3-5,3.4-7,6.2c-2,2.9-3.6,6.5-4.8,10.9c-1.2,4.4-1.8,9.7-1.8,16
			v39.7h35.3v11.6h-35.3v127.1c0,14.6-1.9,28.1-5.7,40.5c-3.8,12.4-9.6,23-17.3,32c-7.7,9-17.4,16-29,21.1
			c-11.6,5.1-25.2,7.6-40.7,7.6c-5.5,0-10.8-0.5-15.8-1.4c-5.1-0.9-9.5-2.2-13.4-3.8c-3.9-1.6-7-3.5-9.3-5.7
			c-2.3-2.2-3.5-4.7-3.5-7.3c0-1.9,0.3-3.9,0.8-5.9c0.5-2,1.3-3.8,2.4-5.4c1.1-1.6,2.4-2.9,4-4c1.6-1,3.4-1.5,5.4-1.5
			c1.2,0,2.2,0.6,3.1,1.8c0.9,1.2,1.9,2.6,2.8,4.4c1,1.7,2.1,3.6,3.3,5.7c1.2,2.1,2.8,4,4.8,5.7c1.9,1.7,4.3,3.2,7.2,4.4
			c2.9,1.2,6.3,1.8,10.4,1.8c5.5,0,10.3-1.1,14.5-3.3c4.2-2.2,7.8-5.2,10.8-9.1c3-3.9,5.5-8.4,7.6-13.7c2-5.3,3.7-10.9,4.8-16.9
			c1.2-6,2-12.3,2.5-18.9c0.5-6.6,0.7-13.1,0.7-19.7V122.4h-29.7v-11.6h29.7V91.9c0-9.5,1.2-17.7,3.5-24.8c2.3-7,5.4-13,9.2-18
			c3.8-4.9,8.1-9,13-12.1c4.8-3.1,9.8-5.6,14.8-7.4c5-1.8,9.9-3.1,14.6-3.7c4.7-0.6,8.9-1,12.4-1c7.6,0,14.4,0.6,20.3,1.7
			c5.9,1.1,10.9,2.6,14.8,4.5c4,1.9,7,4.1,9,6.5c2,2.5,3.1,5,3.1,7.6c0,1.9-0.3,3.9-0.9,5.9c-0.6,2-1.4,3.8-2.5,5.5
			c-1.1,1.7-2.4,3-4,4c-1.6,1-3.3,1.5-5.2,1.5c-1.2,0-2.3-0.6-3.2-1.9c-1-1.3-2-2.9-3.1-4.8c-1.1-1.9-2.3-4-3.5-6.3
			c-1.3-2.3-2.9-4.4-4.8-6.3c-1.9-1.9-4.1-3.5-6.7-4.8S820.1,36.1,816.6,36.1z"/>
		<path class="st0" d="M895.9,142.5c4.1-6.2,8.4-11.9,13.1-16.9c1.9-2.2,4-4.2,6.3-6.3c2.3-2,4.6-3.9,7-5.5c2.4-1.6,4.9-2.9,7.5-3.9
			s5.2-1.5,7.7-1.5c5.5,0,9.8,1.6,12.9,4.9c3.1,3.3,4.7,7.9,4.7,13.8c0,3.7-0.3,7.2-0.9,10.6c-0.6,3.4-1.7,7.5-3.5,12.3h-4.5
			c-0.6-3.3-2.2-6.1-4.5-8.3c-2.4-2.2-5.8-3.3-10.3-3.3c-3.3,0-6.6,0.6-9.8,1.9c-3.2,1.2-6.4,2.8-9.4,4.6c-3.1,1.8-6,3.8-8.7,6
			c-2.7,2.2-5.2,4.2-7.5,6.1v104.7c0,1.4-0.2,3.1-0.6,5c-0.4,1.9-1.5,3.8-3.1,5.5c-1.7,1.7-4.1,3.2-7.4,4.4
			c-3.3,1.2-7.8,1.9-13.5,1.9c-5.7,0-10.2-0.7-13.5-2c-3.3-1.3-5.8-2.9-7.5-4.8c-1.7-1.8-2.8-3.7-3.2-5.6c-0.4-1.9-0.6-3.5-0.6-4.7
			V136.9c0-3.1-0.7-5.8-2.2-8.1c-1.5-2.3-3.9-3.5-7.3-3.5c-1.8,0-3.4,0.3-4.7,1c-1.3,0.6-2.7,1.6-4.2,2.7l-3.4-4
			c2.5-2,5.2-4.1,8.3-6c3.1-2,6.4-3.7,9.9-5.2c3.5-1.5,7.4-2.7,11.5-3.7c4.1-1,8.4-1.5,12.9-1.5c4.6,0,8.6,0.6,11.9,1.9
			c3.3,1.2,6,2.9,8.1,4.8c2.1,2,3.7,4.2,4.9,6.7c1.2,2.5,2.1,5,2.7,7.5c0.6,2.5,0.9,4.9,1,7.3C895.9,139,895.9,140.9,895.9,142.5z"
			/>
		<path class="st0" d="M1010.6,201.9c0,3.4,0.5,7.2,1.5,11.2c1,4,2.5,8.1,4.4,12.2c1.9,4.1,4.3,8,7.2,11.7c2.8,3.7,6.1,7,9.8,9.9
			c3.7,2.9,7.8,5.2,12.3,6.9c4.5,1.7,9.5,2.6,14.8,2.6c3.8,0,7.3-0.4,10.5-1.3c3.2-0.9,6.2-2,9-3.5c2.8-1.5,5.5-3.3,8.1-5.2
			c2.6-2,5.2-4.1,7.7-6.4l4,3.9c-2.5,3.3-5.6,7-9.5,11c-3.9,4-8.6,7.7-14,11.2c-5.5,3.5-11.9,6.4-19.2,8.7c-7.3,2.3-15.6,3.5-25,3.5
			c-9.4,0-18.5-1.7-27.3-5.1c-8.9-3.4-16.8-8.5-23.6-15.2c-6.9-6.8-12.4-15.2-16.5-25.3c-4.1-10.1-6.2-21.9-6.2-35.5
			c0-9.8,1.2-18.8,3.7-26.9c2.5-8.2,5.8-15.5,10.1-22.1c4.2-6.6,9.2-12.3,14.8-17.3c5.6-4.9,11.6-9.1,17.8-12.3
			c6.2-3.3,12.6-5.8,19.1-7.4c6.5-1.7,12.8-2.5,18.8-2.5c8,0,14.9,0.9,20.8,2.6c5.9,1.7,10.8,4,14.8,6.9c3.9,2.9,6.9,6.3,8.8,10.1
			c1.9,3.8,2.9,7.8,2.9,12c0,5.1-1.5,9.6-4.4,13.6s-6.8,7.6-11.6,10.6L1010.6,201.9z M1043,169.1c1.4-0.9,2.6-1.7,3.5-2.5
			c0.9-0.8,1.6-1.8,2.2-2.9c0.5-1.1,0.9-2.5,1.2-4.2c0.3-1.7,0.4-3.7,0.4-6.2c0-2.7-0.3-5.7-0.9-9c-0.6-3.3-1.6-6.4-3-9.3
			c-1.4-2.9-3.2-5.3-5.3-7.3c-2.2-1.9-4.7-2.9-7.7-2.9c-3.9,0-7.2,1.2-9.9,3.5c-2.7,2.3-5,5.3-6.8,9c-1.8,3.7-3.2,7.8-4.2,12.5
			c-1,4.7-1.8,9.4-2.3,14.1c-0.5,4.7-0.9,9.3-1,13.6c-0.1,4.4-0.2,8-0.2,11.1L1043,169.1z"/>
		<path class="st0" d="M1160.3,201.9c0,3.4,0.5,7.2,1.5,11.2c1,4,2.5,8.1,4.4,12.2c1.9,4.1,4.3,8,7.2,11.7c2.8,3.7,6.1,7,9.8,9.9
			c3.7,2.9,7.8,5.2,12.3,6.9c4.5,1.7,9.5,2.6,14.8,2.6c3.8,0,7.3-0.4,10.5-1.3c3.2-0.9,6.2-2,9-3.5c2.8-1.5,5.5-3.3,8.1-5.2
			c2.6-2,5.2-4.1,7.7-6.4l4,3.9c-2.5,3.3-5.6,7-9.5,11c-3.9,4-8.6,7.7-14,11.2c-5.5,3.5-11.9,6.4-19.2,8.7c-7.3,2.3-15.6,3.5-25,3.5
			c-9.4,0-18.5-1.7-27.3-5.1c-8.9-3.4-16.8-8.5-23.6-15.2c-6.9-6.8-12.4-15.2-16.5-25.3c-4.1-10.1-6.2-21.9-6.2-35.5
			c0-9.8,1.2-18.8,3.7-26.9c2.5-8.2,5.8-15.5,10.1-22.1c4.2-6.6,9.2-12.3,14.8-17.3c5.6-4.9,11.6-9.1,17.8-12.3
			c6.2-3.3,12.6-5.8,19.1-7.4c6.5-1.7,12.8-2.5,18.8-2.5c8,0,14.9,0.9,20.8,2.6c5.9,1.7,10.8,4,14.8,6.9c3.9,2.9,6.9,6.3,8.8,10.1
			c1.9,3.8,2.9,7.8,2.9,12c0,5.1-1.5,9.6-4.4,13.6s-6.8,7.6-11.6,10.6L1160.3,201.9z M1192.7,169.1c1.4-0.9,2.6-1.7,3.5-2.5
			c0.9-0.8,1.6-1.8,2.2-2.9c0.5-1.1,0.9-2.5,1.2-4.2c0.3-1.7,0.4-3.7,0.4-6.2c0-2.7-0.3-5.7-0.9-9c-0.6-3.3-1.6-6.4-3-9.3
			c-1.4-2.9-3.2-5.3-5.3-7.3c-2.2-1.9-4.7-2.9-7.7-2.9c-3.9,0-7.2,1.2-9.9,3.5c-2.7,2.3-5,5.3-6.8,9c-1.8,3.7-3.2,7.8-4.2,12.5
			c-1,4.7-1.8,9.4-2.3,14.1c-0.5,4.7-0.9,9.3-1,13.6c-0.1,4.4-0.2,8-0.2,11.1L1192.7,169.1z"/>
	</g>
</g>
<g>
	<g>
		<path class="st0" d="M190.9,303.5h22.2l43.8,120.8h0.6c-0.2-2.8-0.5-6-0.8-9.4c-0.4-3.5-0.7-7.4-0.9-11.8c-0.3-4.4-0.5-9.4-0.7-15
			c-0.2-5.6-0.3-11.8-0.3-18.8v-65.8h24.5V484h-22.4l-43.5-117.6h-0.8c0.2,3.2,0.5,6.6,0.8,10.3c0.4,3.7,0.7,8.1,1,13.1
			c0.3,5,0.5,10.8,0.7,17.5c0.2,6.7,0.3,14.6,0.3,23.7V484h-24.3L190.9,303.5L190.9,303.5z"/>
		<path class="st0" d="M350,485.6c-2.9,0-6-0.2-9.4-0.7c-3.4-0.5-6.7-1.4-10-2.9c-3.3-1.5-6.5-3.6-9.6-6.3
			c-3.1-2.7-5.8-6.3-8.1-10.7c-2.4-4.4-4.2-9.9-5.7-16.4c-1.4-6.5-2.1-14.3-2.1-23.3v-63.9c0-9.1,0.7-16.9,2.2-23.3
			c1.4-6.4,3.4-11.9,5.8-16.3c2.4-4.4,5.1-7.9,8.2-10.5c3.1-2.6,6.3-4.6,9.6-6c3.3-1.4,6.7-2.3,10-2.7c3.3-0.4,6.4-0.6,9.2-0.6
			c2.7,0,5.7,0.2,8.9,0.6c3.3,0.4,6.6,1.2,9.8,2.5c3.3,1.3,6.5,3.2,9.6,5.8c3.1,2.6,5.8,6.1,8.2,10.5c2.4,4.4,4.3,9.9,5.8,16.4
			c1.4,6.5,2.2,14.4,2.2,23.6v63.9c0,9-0.7,16.6-2.2,23.1c-1.5,6.4-3.4,11.9-5.8,16.4c-2.4,4.5-5.2,8.1-8.3,10.8
			c-3.1,2.7-6.3,4.8-9.6,6.3c-3.3,1.5-6.5,2.5-9.8,3C355.5,485.4,352.6,485.6,350,485.6z M350,465c2.7,0,5-0.5,7-1.4
			c2-0.9,3.7-2.5,5-4.8c1.3-2.3,2.3-5.2,3-8.9c0.7-3.7,1-8.4,1-14v-82.1c0-5.8-0.3-10.6-1-14.5c-0.7-3.9-1.7-7-3-9.4
			c-1.3-2.4-3-4-5-5c-2-1-4.4-1.5-7-1.5c-2.7,0-5.1,0.5-7.2,1.5c-2,1-3.7,2.7-5.1,5c-1.3,2.4-2.3,5.5-3,9.4c-0.7,3.9-1,8.7-1,14.5
			V436c0,5.6,0.3,10.3,1,14s1.7,6.7,3,8.9c1.3,2.3,3,3.8,5.1,4.8C344.9,464.6,347.3,465,350,465z"/>
		<path class="st0" d="M420.4,303.5h29.7c3.4,0,7.1,0.1,11.1,0.4c4.1,0.3,8.1,1,12.2,2.1c4.1,1.1,8,2.7,11.7,4.9
			c3.8,2.2,7.1,5.2,10,9s5.3,8.6,7,14.3s2.6,12.7,2.6,20.9v4.5c0,13.7-2,24.9-5.9,33.6c-3.9,8.6-9.8,14.9-17.4,18.7l29,72.2h-29
			l-24-67.5h-10.3V484h-26.8L420.4,303.5L420.4,303.5z M451.4,396.7c4.8,0,8.8-0.5,12.2-1.6c3.3-1.1,6-2.8,8-5.3
			c2-2.5,3.5-5.8,4.4-9.9c0.9-4.1,1.4-9.2,1.4-15.3v-14.3c0-4.6-0.4-8.7-1.3-12c-0.8-3.4-2.3-6.2-4.3-8.4c-2-2.2-4.7-3.8-8-4.9
			c-3.3-1.1-7.5-1.6-12.5-1.6h-4.1v73.2L451.4,396.7L451.4,396.7z"/>
		<path class="st0" d="M547.9,325.1h-29.1v-21.6h85.4v21.6h-29v159h-27.4L547.9,325.1L547.9,325.1z"/>
		<path class="st0" d="M622.7,303.5h27.4v75.6h32.4v-75.6h27.4V484h-27.4v-83.4h-32.4V484h-27.4V303.5z"/>
		<path class="st0" d="M729.4,303.5h26.2l12.2,109.1l1.4,25.5h2.6l2.5-28.6l19.4-105.9h21.9l18.6,105.9l2.1,28.6h2.7l1.3-25.5
			l11.1-109.1h26.3L852.6,484h-27.8l-14.9-86.8l-4.7-37.7h-2.1l-4.5,37.7L782.9,484h-27.5L729.4,303.5z"/>
		<path class="st0" d="M897.3,303.5h66.9v21.6h-39.5v54h30.5v21.6h-30.5v61.8h40.6V484h-68L897.3,303.5L897.3,303.5z"/>
		<path class="st0" d="M978,447.5c0-3.9,0.2-7.5,0.7-10.7c0.5-3.3,1.1-6.8,2.1-10.6h21.2v8.8c0,4.9,0.3,9.2,0.9,12.9
			c0.6,3.7,1.6,6.9,3,9.5c1.4,2.6,3.2,4.5,5.5,5.8c2.3,1.3,5.1,2,8.4,2c5.2,0,9.2-1.4,11.9-4.3c2.7-2.9,4.1-7,4.1-12.5
			c0-2.8-0.2-5.4-0.6-7.8c-0.4-2.4-1.1-4.7-2-7c-0.9-2.3-2.2-4.8-3.9-7.3c-1.6-2.6-3.7-5.4-6.2-8.6l-28.5-33.9
			c-5.1-6.5-9-13-11.7-19.6c-2.7-6.6-4.1-13.6-4.1-21.1c0-6,0.9-11.5,2.8-16.5c1.9-5,4.6-9.3,8.1-12.9c3.5-3.6,7.9-6.4,13.1-8.5
			c5.2-2,11-3,17.6-3c8,0,14.6,1.1,19.9,3.4c5.3,2.3,9.6,5.2,12.7,8.9c3.2,3.7,5.4,7.8,6.7,12.3c1.3,4.5,2,9.1,2,13.7
			c0,3.9-0.3,7.5-0.9,10.7c-0.6,3.3-1.3,6.9-2.1,10.8h-21.1v-8.6c0-9.6-1.4-16.9-4.1-22s-7.2-7.7-13.4-7.7c-5.1,0-9,1.4-11.5,4.3
			c-2.5,2.9-3.8,6.7-3.8,11.5c0,2.5,0.2,4.8,0.6,6.9c0.4,2,1,3.9,1.7,5.7c0.7,1.7,1.6,3.4,2.7,5c1.1,1.6,2.3,3.3,3.6,5.1l31.8,38.5
			c5.8,7.5,10.2,14.8,13.3,21.7c3.1,6.9,4.7,14.3,4.7,22c0,6.4-1,12.2-3,17.3c-2,5.1-4.9,9.5-8.6,13.1c-3.7,3.6-8.2,6.4-13.5,8.3
			c-5.3,1.9-11.2,2.9-17.9,2.9c-8.2,0-15-1.1-20.3-3.3c-5.4-2.2-9.7-5.1-12.9-8.7c-3.2-3.6-5.5-7.7-6.8-12.3
			C978.7,456.9,978,452.3,978,447.5z"/>
		<path class="st0" d="M1102.7,325.1h-29.1v-21.6h85.4v21.6h-29v159h-27.4V325.1z"/>
	</g>
</g>
</svg>
